HIERARCHY
ROOT Hips
{
  OFFSET 13.6774 106.653 -34.4427
  CHANNELS 6 Xposition Yposition Zposition Zrotation Xrotation Yrotation
  JOINT ToSpine
  {
    OFFSET -2.69724 7.43032 -0.144315
    CHANNELS 3 Zrotation Xrotation Yrotation
    JOINT Spine
    {
      OFFSET -0.0310711 10.7595 1.96963
      CHANNELS 3 Zrotation Xrotation Yrotation
      JOINT Spine1
      {
        OFFSET 19.9056 3.91189 0.764692
        CHANNELS 3 Zrotation Xrotation Yrotation
        JOINT Neck
        {
          OFFSET 25.9749 7.03908 -0.130764
          CHANNELS 3 Zrotation Xrotation Yrotation
          JOINT Head
          {
            OFFSET 9.52751 0.295786 -0.907742
            CHANNELS 3 Zrotation Xrotation Yrotation
            End Site
            {
              OFFSET 16.4037 0.713936 2.7358
            }
          }
        }
        JOINT LeftShoulder
        {
          OFFSET 17.7449 4.33886 11.7777
          CHANNELS 3 Zrotation Xrotation Yrotation
          JOINT LeftArm
          {
            OFFSET 0.911315 1.27913 9.80584
            CHANNELS 3 Zrotation Xrotation Yrotation
            JOINT LeftForeArm
            {
              OFFSET 28.6126 1.18197 -3.53199
              CHANNELS 3 Zrotation Xrotation Yrotation
              JOINT LeftHand
              {
                OFFSET 27.5088 0.0218783 0.327423
                CHANNELS 3 Zrotation Xrotation Yrotation
                End Site
                {
                  OFFSET 18.6038 -0.000155887 0.382096
                }
              }
            }
          }
        }
        JOINT RightShoulder
        {
          OFFSET 17.1009 2.89543 -12.2328
          CHANNELS 3 Zrotation Xrotation Yrotation
          JOINT RightArm
          {
            OFFSET 1.4228 0.178766 -10.211
            CHANNELS 3 Zrotation Xrotation Yrotation
            JOINT RightForeArm
            {
              OFFSET 28.733 1.87905 2.64907
              CHANNELS 3 Zrotation Xrotation Yrotation
              JOINT RightHand
              {
                OFFSET 27.4588 0.290562 -0.101845
                CHANNELS 3 Zrotation Xrotation Yrotation
                End Site
                {
                  OFFSET 17.8396 -0.255518 -0.000602873
                }
              }
            }
          }
        }
      }
    }
  }
  JOINT LeftUpLeg
  {
    OFFSET -5.61296 -2.22332 -10.2353
    CHANNELS 3 Zrotation Xrotation Yrotation
    JOINT LeftLeg
    {
      OFFSET 2.56703 -44.7417 -7.93097
      CHANNELS 3 Zrotation Xrotation Yrotation
      JOINT LeftFoot
      {
        OFFSET 3.16933 -46.5642 -3.96578
        CHANNELS 3 Zrotation Xrotation Yrotation
        JOINT LeftToeBase
        {
          OFFSET 0.346054 -6.02161 12.8035
          CHANNELS 3 Zrotation Xrotation Yrotation
          End Site
          {
            OFFSET 0.134235 -1.35082 5.13018
          }
        }
      }
    }
  }
  JOINT RightUpLeg
  {
    OFFSET -5.7928 -1.72406 10.6446
    CHANNELS 3 Zrotation Xrotation Yrotation
    JOINT RightLeg
    {
      OFFSET -2.57161 -44.7178 -7.85259
      CHANNELS 3 Zrotation Xrotation Yrotation
      JOINT RightFoot
      {
        OFFSET -3.10148 -46.5936 -4.03391
        CHANNELS 3 Zrotation Xrotation Yrotation
        JOINT RightToeBase
        {
          OFFSET -0.0828122 -6.13587 12.8035
          CHANNELS 3 Zrotation Xrotation Yrotation
          End Site
          {
            OFFSET -0.131328 -1.35082 5.13018
          }
        }
      }
    }
  }
}
MOTION
Frames: 7
Frame Time: 0.03333333333333333
0.0000 93.1000 0.0000 -71.4361 -32.5150 -166.4606 -70.8465 -0.0546 88.3172 95.0783 72.0388 -7.2396 -2.6137 22.4022 2.4289 -150.5328 0.2322 -168.1499 -153.4824 37.5977 -170.3346 1.0179 -10.0738 -14.8907 -107.5159 13.1168 -91.7136 -2.9938 -0.3623 -79.9878 -0.4096 -0.0104 0.6167 -0.6089 4.7208 14.4033 -55.2103 -25.2402 167.3261 6.5899 1.5208 109.4920 -0.2692 -0.2031 -0.1223 -42.8149 21.5617 103.7813 -4.5594 53.2354 -3.2786 -2.8764 -10.8031 -1.5599 1.7807 -8.3585 13.0520 -49.9265 -20.4446 88.3091 -0.3927 35.9237 -5.0515 -4.7002 -2.9096 0.0689 0.3321 -7.3008 -8.2663 
0.0000 93.1000 0.0000 -71.2968 -32.4982 -166.9621 -70.8565 -0.8136 88.2536 93.7418 71.8011 -5.8594 -2.6472 22.3854 1.3433 -149.3226 0.8279 -168.2571 -152.1364 37.9264 -171.3219 0.4984 -9.8059 -15.7987 -111.5733 12.0315 -91.8413 -0.2729 -0.4879 -74.2001 0.0418 0.0845 0.2506 -1.0413 4.8165 14.2007 -56.0071 -25.3773 168.5034 6.8709 1.8167 109.4879 -0.3408 -0.2886 -0.6261 -43.3528 21.5954 103.7536 -3.5871 50.8349 -3.8540 -3.3256 -9.7871 -1.1014 1.8620 -8.2450 12.5842 -48.9711 -21.8002 87.1747 -1.3100 34.2510 1.3328 -3.9620 1.6530 -0.8664 0.3841 -7.6287 -8.9140 
0.0000 93.1000 0.0000 -71.5394 -32.0638 -167.4120 -70.7668 -0.9710 88.2077 93.9732 71.7970 -6.7118 -2.1147 22.7674 -0.2453 -148.8886 0.6484 -170.4258 -149.5899 38.0929 -173.8566 0.4646 -9.9822 -15.8971 -116.2862 10.9286 -91.3973 1.3494 0.5478 -69.1932 -0.0553 -0.1390 0.7465 -1.4148 4.6930 14.2805 -57.4804 -25.6217 170.0054 7.3425 2.1218 108.2572 -0.4955 0.0339 -0.9519 -44.0469 22.6691 104.3642 -4.2174 48.5727 -3.2091 -3.3846 -7.3432 -0.3180 1.2999 -7.4857 11.6916 -47.7432 -21.4707 89.0292 -1.6462 34.4127 8.5621 -2.9891 4.2753 -1.4465 1.5423 -13.2931 -12.0921 
0.0000 93.1000 0.0000 -71.3900 -31.9069 -167.9777 -70.6503 -0.7142 88.1831 93.3088 71.9239 -5.6064 -1.9748 22.8841 -1.2200 -146.9489 0.7210 -170.9807 -148.8967 37.9136 -173.6421 0.5272 -9.8793 -16.8990 -120.4131 9.3172 -90.3402 2.7783 1.3861 -65.2018 0.0829 -0.1361 0.4120 -1.1996 4.3299 13.8732 -58.4218 -25.7431 171.0153 7.1918 2.2103 107.8866 -0.2304 0.0581 -0.6108 -44.5129 22.6319 103.2722 -2.6572 46.9974 -2.7410 -3.6439 -4.7145 -0.4038 1.2894 -7.6906 9.6282 -47.9843 -20.0697 91.9275 0.3195 36.0949 3.6770 -1.6007 2.8826 -0.9445 1.5484 -17.0025 -10.6496 
0.0000 93.1000 0.0000 -70.1804 -33.5957 -168.9250 -70.4520 -0.2019 88.3022 91.7820 71.2442 -4.1447 -1.1803 22.4530 -0.9169 -148.1971 0.8362 -169.5338 -150.7456 37.7681 -172.6994 0.8700 -9.5616 -17.8466 -123.6117 8.0410 -89.4273 3.9511 2.4111 -63.4161 -0.1211 -0.0928 0.5203 -0.7911 4.6292 12.2381 -58.0325 -27.8378 172.9435 6.6471 2.1756 107.0948 0.2188 0.0367 -0.4125 -44.8723 23.6244 102.3147 -3.8652 45.0038 -0.5373 -4.0712 -1.5680 -0.3634 1.5180 -7.1696 6.7948 -48.4867 -18.7836 92.0123 -0.3637 37.7945 0.5146 -2.6420 2.4288 -0.0922 1.7884 -20.4247 -9.0268 
0.0000 93.1000 0.0000 -70.1580 -34.1679 -167.5305 -70.4965 0.7341 88.3595 88.9947 71.2498 -2.6561 -0.3947 22.0509 -0.4355 -148.3964 0.9973 -169.0898 -151.1816 37.7273 -172.1031 1.5097 -9.4601 -19.1635 -124.9832 7.0838 -88.7088 4.8722 2.5858 -62.4385 0.0361 -0.2715 0.1045 -0.1047 4.7032 10.7175 -58.2650 -28.7737 173.7479 5.5079 1.5404 106.6834 0.4061 0.3254 0.2257 -44.7754 24.3981 99.9961 -2.2716 42.3367 0.1295 -4.0980 1.0998 -0.6590 0.5062 -4.2840 3.0954 -48.6456 -17.9248 89.7513 1.4343 38.8319 1.4088 -1.8783 0.1382 0.7665 2.4616 -19.3916 -8.3193 
0.0000 93.1000 0.0000 -70.2410 -35.5885 -167.8247 -70.6904 -0.0993 88.3203 89.1984 70.8671 -2.4577 -0.0656 21.6011 -0.7889 -148.0995 1.1230 -168.6308 -150.5924 37.7682 -172.3027 0.8121 -9.8127 -20.9755 -127.1140 6.2051 -86.8608 4.7791 2.7752 -61.4417 -0.3670 0.0624 0.5572 -0.5076 4.6730 10.8229 -59.0490 -29.3068 173.3996 6.2643 2.1646 106.1063 0.3283 -0.0769 0.1302 -44.3457 24.7626 97.7800 -1.5390 40.4536 2.2476 -3.5872 3.7776 -0.1841 -0.1236 -3.3058 2.3914 -48.8862 -16.9463 87.2561 0.7257 40.6683 -1.7765 -3.8479 -1.9901 0.2978 2.0612 -19.3445 -6.4269 
